# AST/ASF file generated using VICON BodyLanguage
# -----------------------------------------------
:version 1.10
:name VICON
:units
  mass 1.0
  length 0.45
  angle deg
:documentation
   .ast/.asf automatically generated from VICON data using
   VICON BodyBuilder and BodyLanguage model FoxedUp or BRILLIANT.MOD
:root
   order TX TY TZ RX RY RZ
   axis XYZ
   position 0 0 0  
   orientation 0 0 0 
:bonedata
  begin
     id 1 
     name lhipjoint
     direction 0.653368 -0.678499 0.335782 
     length 2.51848 
     axis 0 0 0  XYZ
  end
  begin
     id 2 
     name lfemur
     direction 0.34202 -0.939693 0  
     length 6.57749  
     axis 0 0 20  XYZ
    dof rx ry rz
    limits (-160.0 20.0)
           (-70.0 70.0)
           (-60.0 70.0)
  end
  begin
     id 3 
     name ltibia
     direction 0.34202 -0.939693 0   
     length 7.94618   
     axis 0 0 20   XYZ
    dof rx
    limits (-10.0 170.0)
  end
  begin
     id 4 
     name lfoot
     direction 0.0811271 -0.222895 0.971461   
     length 2.31339   
     axis -90 7.62852e-016 20   XYZ
    dof rx rz
    limits (-45.0 90.0)
           (-70.0 20.0)
  end
  begin
     id 5 
     name ltoes
     direction 1.53568e-011 -4.21885e-011 1   
     length 1.15935   
     axis -90 7.62852e-016 20   XYZ
    dof rx
    limits (-90.0 20.0)
  end
  begin
     id 6 
     name rhipjoint
     direction -0.640058 -0.688614 0.340788   
     length 2.48149  
     axis 0 0 0  XYZ 
  end
  begin
     id 7 
     name rfemur
     direction -0.34202 -0.939693 0   
     length 6.57875   
     axis 0 0 -20   XYZ
    dof rx ry rz
    limits (-160.0 20.0)
           (-70.0 70.0)
           (-70.0 60.0)
  end
  begin
     id 8 
     name rtibia
     direction -0.34202 -0.939693 0   
     length 7.977   
     axis 0 0 -20   XYZ
    dof rx
    limits (-10.0 170.0)
 end
 begin
     id 9 
     name rfoot
     direction -0.0979793 -0.269196 0.958089   
     length 2.19857  
     axis -90 -7.62852e-016 -20   XYZ
    dof rx rz
    limits (-45.0 90.0)
           (-20.0 70.0)
  end
  begin
     id 10 
     name rtoes
     direction -1.53556e-011 -4.21868e-011 1   
     length 1.09838   
     axis -90 -7.62852e-016 -20   XYZ
    dof rx
    limits (-90.0 20.0)
  end
  begin
     id 11 
     name lowerback
     direction 0.0149039 0.998517 -0.0523597   
     length 2.10809   
     axis 0 0 0   XYZ
    dof rx ry rz
    limits (-20.0 45.0)
           (-30.0 30.0)
           (-30.0 30.0)
  end
  begin
     id 12 
     name upperback
     direction -0.00882659 0.999418 -0.0329624   
     length 2.1102   
     axis 0 0 0   XYZ
    dof rx ry rz
    limits (-20.0 45.0)
           (-30.0 30.0)
           (-30.0 30.0)
  end
  begin
     id 13 
     name thorax
     direction -0.0165585 0.999826 -0.0085833   
     length 2.11039   
     axis 0 0 0   XYZ
    dof rx ry rz
    limits (-20.0 45.0)
           (-30.0 30.0)
           (-30.0 30.0)
  end
  begin
     id 14 
     name lowerneck
     direction -0.0130877 0.999911 0.00260353   
     length 1.73253   
     axis 0 0 0   XYZ
    dof rx ry rz
    limits (-20.0 45.0)
           (-30.0 30.0)
           (-30.0 30.0)
  end
  begin
     id 15 
     name upperneck
     direction -0.0348454 0.928205 -0.370435   
     length 1.66692   
     axis 0 0 0   XYZ
    dof rx ry rz
    limits (-20.0 45.0)
           (-30.0 30.0)
           (-30.0 30.0)
  end
  begin
     id 16
     name head
     direction -0.00807754 0.992494 -0.122026  
     length 1.72765  
     axis 0 0 0   XYZ
    dof rx ry rz
    limits (-20.0 45.0)
           (-30.0 30.0)
           (-30.0 30.0)
  end
  begin
     id 17 
     name lclavicle
     direction 0.987582 0.144023 0.0627671  
     length 3.49235  
     axis 0 0 0   XYZ
    dof ry rz
    limits (-20.0 10.0)
           (0.0 20.0)
  end
  begin
     id 18 
     name lhumerus
     direction 1 -4.48958e-011 -1.45183e-018   
     length 5.41917   
     axis 180 -30 -90   XYZ
    dof rx ry rz
    limits (-60.0 90.0)
           (-90.0 90.0)
           (-90.0 90.0)
  end
  begin
     id 19
     name lradius
     direction 1 -4.48999e-011 5.75106e-027   
     length 2.44373   
     axis 180 -30 -90   XYZ
    dof rx
    limits (-10.0 170.0)
  end
  begin
     id 20
     name lwrist
     direction 1 -4.48987e-011 1.53461e-026   
     length 1.22186   
     axis -1.09697e-014 90 90   XYZ
    dof ry
    limits (-180.0 0.0)
 end
  begin
     id 21 
     name lhand
     direction 1 -4.48881e-011 3.06923e-026   
     length 0.727502   
     axis -1.95843e-014 90 90   XYZ
    dof rx rz
    limits (-90.0 90.0)
           (-45.0 45.0)
  end
  begin
     id 22 
     name lfingers
     direction 1 -4.48907e-011 6.13845e-026   
     length 0.586531   
     axis -3.91686e-014 90 90   XYZ
    dof rx
    limits (0.0 90.0)
  end
  begin
     id 23
     name lthumb
     direction 0.707107 -6.3487e-011 0.707107   
     length 0.842145   
     axis -90 45 2.85299e-015   XYZ
    dof rx rz
    limits (-45.0 45.0)
           (-45.0 45.0)
  end
  begin
     id 24 
     name rclavicle
     direction -0.980998 0.169556 0.0943023   
     length 3.29272  
     axis 0 0 0   XYZ 
    dof ry rz
    limits (-10.0 20.0)
           (-20.0 0.0)
  end
  begin
     id 25 
     name rhumerus
     direction -1 -1.83355e-005 2.45537e-005  
     length 5.58976   
     axis 180 30 90   XYZ
    dof rx ry rz
    limits (-90.0 60.0)
           (-90.0 90.0)
           (-90.0 90.0)
  end
  begin
     id 26 
     name rradius
     direction -1 -4.48967e-011 5.97228e-027   
     length 2.4806   
     axis 180 30 90   XYZ
    dof rx
    limits (-10.0 170.0)
  end
  begin
     id 27 
     name rwrist
     direction -1 -4.48963e-011 1.53461e-026   
     length 1.2403   
     axis -1.09697e-014 -90 -90   XYZ
    dof ry
    limits (-180.0 0.0)
  end
  begin
     id 28
     name rhand
     direction -1 -4.48881e-011 3.06923e-026   
     length 0.816009   
     axis -1.95843e-014 -90 -90   XYZ
    dof rx rz
    limits (-90.0 90.0)
           (-45.0 45.0)
  end
  begin
     id 29
     name rfingers
     direction -1 -4.49018e-011 6.13845e-026   
     length 0.657887   
     axis -3.91686e-014 -90 -90   XYZ
    dof rx
    limits (0.0 90.0)
  end
  begin
     id 30
     name rthumb
     direction -0.707107 -6.34872e-011 0.707107   
     length 0.944599   
     axis -90 -45 -2.85299e-015   XYZ
    dof rx rz
    limits (-45.0 45.0)
           (-45.0 45.0)
  end
:hierarchy
  begin
    root lhipjoint rhipjoint lowerback
    lhipjoint lfemur
    lfemur ltibia
    ltibia lfoot
    lfoot ltoes
    rhipjoint rfemur
    rfemur rtibia
    rtibia rfoot
    rfoot rtoes
    lowerback upperback
    upperback thorax
    thorax lowerneck lclavicle rclavicle
    lowerneck upperneck
    upperneck head
    lclavicle lhumerus
    lhumerus lradius
    lradius lwrist
    lwrist lhand lthumb
    lhand lfingers
    rclavicle rhumerus
    rhumerus rradius
    rradius rwrist
    rwrist rhand rthumb
    rhand rfingers
  end

#!OML:ASF F:\VICON\USERDATA\INSTALL\rory3\rory3.ASF
:FULLY-SPECIFIED
:DEGREES
1
root -3.63207 16.1288 -35.0103 54.7985 85.3663 36.8167
lowerback -10.2604 -0.42836 -0.854257
upperback -9.85259 0.00211486 0.706022
thorax -4.5569 0.291568 1.19725
lowerneck 2.00336 -24.0494 -16.0681
upperneck 18.6713 -34.446 10.8534
head 10.2938 -16.5613 1.77141
rclavicle -1.14301e-014 -1.59028e-015
rhumerus 17.2144 1.80991 -47.4272
rradius 27.5379
rwrist -24.6912
rhand 0.157537 16.117
rfingers 7.12502
rthumb 25.7413 -12.162
lclavicle -1.14301e-014 -1.59028e-015
lhumerus -34.9403 21.0877 23.8534
lradius 15.6087
lwrist -52.4433
lhand 5.40546 21.0345
lfingers 7.12502
lthumb 30.7566 48.4821
rfemur -39.5468 16.1701 -17.458
rtibia 40.6155
rfoot -83.4447 6.57452
rtoes 62.0486
lfemur -29.911 -4.82297 -21.8141
ltibia 36.0445
lfoot -24.9107 23.6169
ltoes -36.7605
2
root -3.60956 16.1077 -34.9427 53.9718 84.9484 36.1373
lowerback -10.6235 -1.00074 -1.54017
upperback -9.3504 -0.730707 1.58088
thorax -3.78365 -0.0355473 2.44542
lowerneck 0.809945 -23.7776 -16.2311
upperneck 18.4649 -33.8122 10.4413
head 10.2715 -16.2646 1.65696
rclavicle 6.85807e-015 -7.95139e-016
rhumerus 15.4594 10.4543 -39.4797
rradius 33.6703
rwrist -34.9261
rhand -5.3869 11.075
rfingers 7.12502
rthumb 20.4216 -17.8711
lclavicle 6.85807e-015 -7.95139e-016
lhumerus -35.9829 22.5138 22.0687
lradius 15.3765
lwrist -53.2291
lhand 5.24035 21.3505
lfingers 7.12502
lthumb 30.5992 48.8276
rfemur -39.1857 14.0429 -16.8566
rtibia 40.6001
rfoot -82.6988 4.59208
rtoes 62.1392
lfemur -29.7941 -4.51727 -21.9119
ltibia 36.268
lfoot -24.5229 24.1535
ltoes -38.3355
3
root -3.58393 16.1118 -34.8783 53.4023 84.4312 35.7424
lowerback -10.4075 -0.981888 -1.4317
upperback -9.3211 -0.728041 1.43864
thorax -3.87212 -0.0483117 2.23781
lowerneck 0.686486 -23.9311 -16.1832
upperneck 18.4303 -34.0186 10.4267
head 10.295 -16.3521 1.59123
rclavicle 9.93923e-015 -1.74931e-014
rhumerus 13.0204 13.1434 -35.1597
rradius 36.6709
rwrist -39.1347
rhand -8.96257 7.68648
rfingers 7.12502
rthumb 16.9825 -21.5911
lclavicle 9.93923e-015 -1.74931e-014
lhumerus -35.4337 23.0423 20.2619
lradius 15.2183
lwrist -54.5101
lhand 5.41854 21.4587
lfingers 7.12502
lthumb 30.7691 48.9039
rfemur -39.0642 8.56092 -15.0054
rtibia 40.9025
rfoot -79.1475 -0.271195
rtoes 62.2816
lfemur -29.5874 -4.29334 -22.0789
ltibia 36.4952
lfoot -24.4347 24.3445
ltoes -38.2137
4
root -3.55814 16.0935 -34.8012 51.5227 84.0268 34.1174
lowerback -10.0349 -0.987042 -1.20637
upperback -9.35375 -0.761865 1.36277
thorax -4.1119 -0.0806953 2.03339
lowerneck 0.773804 -24.0737 -16.1204
upperneck 18.1485 -34.2194 10.4941
head 10.2067 -16.454 1.58932
rclavicle -6.36111e-015 8.74653e-015
rhumerus 11.4081 13.2779 -32.6712
rradius 37.073
rwrist -39.5029
rhand -10.9216 5.70935
rfingers 7.12502
rthumb 15.096 -23.7202
lclavicle -6.36111e-015 8.74653e-015
lhumerus -35.0979 23.5059 18.3721
lradius 15.1873
lwrist -55.7778
lhand 5.58722 21.5812
lfingers 7.12502
lthumb 30.9299 48.996
rfemur -39.2979 -0.0714251 -12.188
rtibia 41.0966
rfoot -72.9327 -8.99935
rtoes 62.0263
lfemur -29.3386 -3.79998 -22.1109
ltibia 36.7414
lfoot -22.8186 25.2406
ltoes -41.2168
5
root -3.53259 16.0929 -34.7298 46.5948 84.0401 29.4171
lowerback -9.61824 -1.00174 -0.441641
upperback -9.42973 -0.825975 1.54137
thorax -4.42691 -0.147633 1.79154
lowerneck 0.835526 -23.8791 -16.2429
upperneck 17.9218 -33.967 10.6974
head 10.1426 -16.3428 1.72424
rclavicle -1.83876e-014 2.46493e-014
rhumerus 10.5518 11.5564 -31.1734
rradius 35.2036
rwrist -36.9879
rhand -11.705 5.93439
rfingers 7.12502
rthumb 14.3412 -23.5503
lclavicle -1.83876e-014 2.46493e-014
lhumerus -34.7967 23.3671 17.0176
lradius 15.2454
lwrist -56.2001
lhand 5.71727 22.1108
lfingers 7.12502
lthumb 31.0539 49.5019
rfemur -39.1448 -0.862003 -10.9456
rtibia 41.3894
rfoot -72.7448 -8.55663
rtoes 62.2388
lfemur -29.132 -3.44858 -21.4909
ltibia 37.0717
lfoot -23.8494 24.7748
ltoes -38.9241
